HIERARCHY
ROOT hips
{
  OFFSET 0 10.6860622 2.3727825e-15
  CHANNELS 6 Xposition Yposition Zposition Yrotation Xrotation Zrotation
  JOINT leftUpperLeg
  {
    OFFSET 0.6642549969 -0.9402397400000004 0
    CHANNELS 3 Yrotation Xrotation Zrotation
    JOINT leftLowerLeg
    {
      OFFSET 0 -3.997221335632195 0
      CHANNELS 3 Yrotation Xrotation Zrotation
      JOINT leftFoot
      {
        OFFSET -0.13777839790000004 -4.6145792000000005 -0.22186036399999998
        CHANNELS 3 Yrotation Xrotation Zrotation
        JOINT leftToes
        {
          OFFSET -0.03777410834999995 -0.9130806927000008 0.85230013
          CHANNELS 3 Yrotation Xrotation Zrotation
          End Site
          {
            OFFSET -0.03777410834999995 -0.9130806927000008 0.85230013
          }
        }
      }
    }
  }
  JOINT rightUpperLeg
  {
    OFFSET -0.6642778626 -0.9402397400000004 0
    CHANNELS 3 Yrotation Xrotation Zrotation
    JOINT rightLowerLeg
    {
      OFFSET 0 -3.997221452859387 0
      CHANNELS 3 Yrotation Xrotation Zrotation
      JOINT rightFoot
      {
        OFFSET 0.1377926176 -4.6145792000000005 -0.22185782299999995
        CHANNELS 3 Yrotation Xrotation Zrotation
        JOINT rightToes
        {
          OFFSET 0.037780746850000047 -0.9130806927000008 0.85230167
          CHANNELS 3 Yrotation Xrotation Zrotation
          End Site
          {
            OFFSET 0.037780746850000047 -0.9130806927000008 0.85230167
          }
        }
      }
    }
  }
  JOINT spine
  {
    OFFSET 0 0.13988381660000015 0
    CHANNELS 3 Yrotation Xrotation Zrotation
    JOINT chest
    {
      OFFSET 0 0.6191039003973773 0
      CHANNELS 3 Yrotation Xrotation Zrotation
      JOINT upperChest
      {
        OFFSET 0 0.9855186130586943 0
        CHANNELS 3 Yrotation Xrotation Zrotation
        JOINT leftShoulder
        {
          OFFSET 0.1807663869 1.5087829790000005 0
          CHANNELS 3 Yrotation Xrotation Zrotation
          JOINT leftUpperArm
          {
            OFFSET 0.5985063006419806 0 0
            CHANNELS 3 Yrotation Xrotation Zrotation
            JOINT leftLowerArm
            {
              OFFSET 2.2993332369501065 0 0
              CHANNELS 3 Yrotation Xrotation Zrotation
              JOINT leftHand
              {
                OFFSET 2.395047042602395 0 0
                CHANNELS 3 Yrotation Xrotation Zrotation
                JOINT leftIndexProximal
                {
                  OFFSET 0.5766295810000004 0.04556643899499946 0.17265095988184
                  CHANNELS 3 Yrotation Xrotation Zrotation
                  JOINT leftIndexIntermediate
                  {
                    OFFSET 0.2957229000000008 -0.019352197700001517 -0.007932640616999987
                    CHANNELS 3 Yrotation Xrotation Zrotation
                    JOINT leftIndexDistal
                    {
                      OFFSET 0.19008243099999922 -0.012484908149998475 -0.002786250786000012
                      CHANNELS 3 Yrotation Xrotation Zrotation
                      End Site
                      {
                        OFFSET 0.19008243099999922 -0.012484908149998475 -0.002786250786000012
                      }
                    }
                  }
                }
                JOINT leftMiddleProximal
                {
                  OFFSET 0.5834975091000001 0.0524350405149987 0.02204081888183999
                  CHANNELS 3 Yrotation Xrotation Zrotation
                  JOINT leftMiddleIntermediate
                  {
                    OFFSET 0.33880573540000003 -0.019871473270000717 -0.00000971183179999946
                    CHANNELS 3 Yrotation Xrotation Zrotation
                    JOINT leftMiddleDistal
                    {
                      OFFSET 0.20676022730000088 -0.012221336379999448 0.0001471936708000235
                      CHANNELS 3 Yrotation Xrotation Zrotation
                      End Site
                      {
                        OFFSET 0.20676022730000088 -0.012221336379999448 0.0001471936708000235
                      }
                    }
                  }
                }
                JOINT leftLittleProximal
                {
                  OFFSET 0.5344154683999995 -0.012880921405001189 -0.24414037221816004
                  CHANNELS 3 Yrotation Xrotation Zrotation
                  JOINT leftLittleIntermediate
                  {
                    OFFSET 0.21758961730000093 -0.011650919939999227 0.011893592810000034
                    CHANNELS 3 Yrotation Xrotation Zrotation
                    JOINT leftLittleDistal
                    {
                      OFFSET 0.1475273964999999 -0.008152365682999818 0.006001092492999946
                      CHANNELS 3 Yrotation Xrotation Zrotation
                      End Site
                      {
                        OFFSET 0.1475273964999999 -0.008152365682999818 0.006001092492999946
                      }
                    }
                  }
                }
                JOINT leftRingProximal
                {
                  OFFSET 0.5799399463000003 0.026911854694997794 -0.12150566991816003
                  CHANNELS 3 Yrotation Xrotation Zrotation
                  JOINT leftRingIntermediate
                  {
                    OFFSET 0.26167887460000006 -0.013480186499999602 0.010996293000000053
                    CHANNELS 3 Yrotation Xrotation Zrotation
                    JOINT leftRingDistal
                    {
                      OFFSET 0.17667108799999987 -0.008990287899999228 0.0055541023999999065
                      CHANNELS 3 Yrotation Xrotation Zrotation
                      End Site
                      {
                        OFFSET 0.17667108799999987 -0.008990287899999228 0.0055541023999999065
                      }
                    }
                  }
                }
                JOINT leftThumbProximal
                {
                  OFFSET 0.11018806699999972 -0.09448718900500053 0.17047963138184
                  CHANNELS 3 Yrotation Xrotation Zrotation
                  JOINT leftThumbIntermediate
                  {
                    OFFSET 0.31062601459999983 -0.08126270900000132 0.15443142000000007
                    CHANNELS 3 Yrotation Xrotation Zrotation
                    JOINT leftThumbDistal
                    {
                      OFFSET 0.21627175790000086 -0.08833193599999878 0.018771167799999988
                      CHANNELS 3 Yrotation Xrotation Zrotation
                      End Site
                      {
                        OFFSET 0.21627175790000086 -0.08833193599999878 0.018771167799999988
                      }
                    }
                  }
                }
              }
            }
          }
        }
        JOINT neck
        {
          OFFSET 0 1.5463305265074576 0
          CHANNELS 3 Yrotation Xrotation Zrotation
          JOINT head
          {
            OFFSET 0 0.8456443600000344 0
            CHANNELS 3 Yrotation Xrotation Zrotation
            JOINT leftEye
            {
              OFFSET 0.30408573140000006 0.5104519199999995 0.1276382305
              CHANNELS 3 Yrotation Xrotation Zrotation
              End Site
              {
                OFFSET 0.30408573140000006 0.5104519199999995 0.1276382305
              }
            }
            JOINT rightEye
            {
              OFFSET -0.30409491089999996 0.5104519199999995 0.1276379445
              CHANNELS 3 Yrotation Xrotation Zrotation
              End Site
              {
                OFFSET -0.30409491089999996 0.5104519199999995 0.1276379445
              }
            }
            JOINT jaw
            {
              OFFSET -3.155239131000001e-7 -0.11984121820000082 0.60178107
              CHANNELS 3 Yrotation Xrotation Zrotation
              End Site
              {
                OFFSET -3.155239131000001e-7 -0.11984121820000082 0.60178107
              }
            }
          }
        }
        JOINT rightShoulder
        {
          OFFSET -0.1807303465 1.5087829790000005 0
          CHANNELS 3 Yrotation Xrotation Zrotation
          JOINT rightUpperArm
          {
            OFFSET -0.5985063796536958 0 0
            CHANNELS 3 Yrotation Xrotation Zrotation
            JOINT rightLowerArm
            {
              OFFSET -2.2993322059002854 0 0
              CHANNELS 3 Yrotation Xrotation Zrotation
              JOINT rightHand
              {
                OFFSET -2.395045314457259 0 0
                CHANNELS 3 Yrotation Xrotation Zrotation
                JOINT rightIndexProximal
                {
                  OFFSET -0.5764487688300002 0.0441371204405987 0.17361932004999997
                  CHANNELS 3 Yrotation Xrotation Zrotation
                  JOINT rightIndexIntermediate
                  {
                    OFFSET -0.29573011380000047 -0.01934826376999843 -0.007698921482999974
                    CHANNELS 3 Yrotation Xrotation Zrotation
                    JOINT rightIndexDistal
                    {
                      OFFSET -0.19008373999999884 -0.012503266380000655 -0.0026365778999999897
                      CHANNELS 3 Yrotation Xrotation Zrotation
                      End Site
                      {
                        OFFSET -0.19008373999999884 -0.012503266380000655 -0.0026365778999999897
                      }
                    }
                  }
                }
                JOINT rightMiddleProximal
                {
                  OFFSET -0.5834852037300005 0.05211639405060153 0.02307162440000001
                  CHANNELS 3 Yrotation Xrotation Zrotation
                  JOINT rightMiddleIntermediate
                  {
                    OFFSET -0.33880114510000003 -0.019952774050000954 0.0002455003561999819
                    CHANNELS 3 Yrotation Xrotation Zrotation
                    JOINT rightMiddleDistal
                    {
                      OFFSET -0.20675694929999955 -0.012273788999999091 0.00030209124000002766
                      CHANNELS 3 Yrotation Xrotation Zrotation
                      End Site
                      {
                        OFFSET -0.20675694929999955 -0.012273788999999091 0.00030209124000002766
                      }
                    }
                  }
                }
                JOINT rightLittleProximal
                {
                  OFFSET -0.5346811737299992 -0.011214256288399227 -0.24363941305000003
                  CHANNELS 3 Yrotation Xrotation Zrotation
                  JOINT rightLittleIntermediate
                  {
                    OFFSET -0.21757715980000092 -0.011771559690000988 0.01201554387
                    CHANNELS 3 Yrotation Xrotation Zrotation
                    JOINT rightLittleDistal
                    {
                      OFFSET -0.1475201849000004 -0.00822055339600003 0.006082065407000015
                      CHANNELS 3 Yrotation Xrotation Zrotation
                      End Site
                      {
                        OFFSET -0.1475201849000004 -0.00822055339600003 0.006082065407000015
                      }
                    }
                  }
                }
                JOINT rightRingProximal
                {
                  OFFSET -0.5800810755299999 0.027657985680600072 -0.12066365025000003
                  CHANNELS 3 Yrotation Xrotation Zrotation
                  JOINT rightRingIntermediate
                  {
                    OFFSET -0.26166445029999974 -0.013623118409999302 0.011164098990000045
                    CHANNELS 3 Yrotation Xrotation Zrotation
                    JOINT rightRingDistal
                    {
                      OFFSET -0.17666387530000027 -0.009072900100000503 0.005668185599999959
                      CHANNELS 3 Yrotation Xrotation Zrotation
                      End Site
                      {
                        OFFSET -0.17666387530000027 -0.009072900100000503 0.005668185599999959
                      }
                    }
                  }
                }
                JOINT rightThumbProximal
                {
                  OFFSET -0.10997596379000074 -0.09577489355940072 0.16989765924999997
                  CHANNELS 3 Yrotation Xrotation Zrotation
                  JOINT rightThumbIntermediate
                  {
                    OFFSET -0.31036620999999986 -0.08229339117999834 0.15440884469999996
                    CHANNELS 3 Yrotation Xrotation Zrotation
                    JOINT rightThumbDistal
                    {
                      OFFSET -0.21631306399999906 -0.08825326400000111 0.018656797720000014
                      CHANNELS 3 Yrotation Xrotation Zrotation
                      End Site
                      {
                        OFFSET -0.21631306399999906 -0.08825326400000111 0.018656797720000014
                      }
                    }
                  }
                }
              }
            }
          }
        }
      }
    }
  }
}
MOTION
Frames: 8
Frame Time: 0.03333333333333333
0 11.682712981546562 0 0 0 0 0 0 -5.826343164929014 -0.3712483961610101 -3.6333298826370974 5.838118207697276 0 0 0 0 0 0 0 0 5.826343164929014 0.3712483961610101 -3.6333298826370974 -5.838118207697276 0 0 0 0 0 0 0 -4.610651315171937 0 0 3.0831277533083026 0 0 0 0 0 1.5275236235667615 0 0 0 0 0 0 0 0 0 0 0 0 0 0 0 0 0 0 0 0 0 0 0 0 0 0 0 0 0 0 0 0 0 0 0 0 0 0 0 0 0 0 0 0 0 0 0 0 0 0 0 0 0 0 0 0 1.5275236235667615 0 0 0 0 0 0 0 0 0 0 0 0 0 0 1.5275236235667615 0 0 0 0 0 0 0 0 0 0 0 0 0 0 0 0 0 0 0 0 0 0 0 0 0 0 0 0 0 0 0 0 0 0 0 0 0 0 0 0 0 0 0 0 0 0 0 0 0 0 0 0 0 0 0
-0.12496102598966756 -10.642386694653954 0.03466500897735026 180 -78.98189680466471 180 5.1482178660190465 -22.172923343090776 5.654092492097677 59.361407873291604 75.93300503843788 47.73326042870092 4.6555173788289945 32.104004281660536 -1.6664049807568497 0 0 0 -2.3879732658286517 -20.387309704576243 -9.730113390488173 -44.53390710513843 70.78218463963711 -32.51484993878628 -0.3833916249781362 38.65016654150971 4.208092385089368 0 0 0 -0.5859622310246975 13.896198677521031 -1.247154584000131 -0.9951771577191494 -10.268614304820957 1.9814610930652947 0 0 0 -1.904238301129764 -2.7692151560049107 -1.5946805576609622 -4.970062960020705 -13.61729982652346 -79.12528560021455 -41.51449301592594 6.056597643253803 -5.572223845647056 5.302015024954555 11.038022057355088 -45.64434539409759 0 0 0 0 0 0 0 0 0 0 0 0 0 0 0 0 0 0 0 0 0 0 0 0 0 0 0 0 0 0 0 0 0 0 0 0 0 0 0 0 0 0 0 0 0 -0.0013841466563218612 0.5272517814854634 11.99818992491204 0 0 10.999558215064198 0 0 0 0 0 0 0 0 0 15.332817737199518 -0.4099794936679351 -15.769551118635947 6.876959232457155 -22.72566535486964 65.994008639388 77.6397327788642 -1.1703099596424158 18.39950942215062 9.352364664015413 -18.173505879257377 60.0076350390621 0 0 0 0 0 0 0 0 0 0 0 0 0 0 0 0 0 0 0 0 0 0 0 0 0 0 0 0 0 0 0 0 0 0 0 0 0 0 0 0 0 0 0 0 0
-0.12496102598966756 -10.611931150059768 0.04684733417193309 180 -79.64842823692031 180 5.070067818785414 -22.71326055407188 5.590752379901092 59.361436585025494 75.93300503843788 47.733288548801625 4.579781586856925 31.838602689365054 -1.8709857757000654 0 0 0 -2.115725309428257 -20.95109241976378 -9.650838183070265 -44.53390710513843 70.78218463963711 -32.51484993878628 -0.3683050324991213 38.394860382569924 4.576341808289084 0 0 0 -0.5824326242280493 12.407912312517052 -1.2315619376672278 -0.9922941940994641 -9.272262070439277 1.964047917772732 0 0 0 -1.5823418206750606 -2.3127003465464617 -1.3544831311331305 -4.9730039325013315 -13.33026315073302 -79.22926325040275 -42.922455054676654 5.982041460902569 -5.826047307707632 5.750462545066329 11.026338251357796 -45.62237541317238 0 0 0 0 0 0 0 0 0 0 0 0 0 0 0 0 0 0 0 0 0 0 0 0 0 0 0 0 0 0 0 0 0 0 0 0 0 0 0 0 0 0 0 0 0 -0.0014332757381195795 0.5272192833501447 12.497723698976285 -0.00010798041907157957 -0.27784600737025084 10.999556398829538 0 0 0 0 0 0 0 0 0 14.886648546736712 -1.2839122590645216 -16.503060092912833 6.897617144646148 -22.567933435160878 66.56799196489503 77.97442748558885 -1.2806728709507418 18.738878104223158 8.580203136458888 -18.3661247883239 59.55926164783412 0 0 0 0 0 0 0 0 0 0 0 0 0 0 0 0 0 0 0 0 0 0 0 0 0 0 0 0 0 0 0 0 0 0 0 0 0 0 0 0 0 0 0 0 0
-0.12496102598966756 -10.581475605465583 0.059029659366515906 180 -80.31531473408171 180 4.9922247056417985 -23.253875180419026 5.527936250482155 59.36140938443508 75.93300503843788 47.73326042870092 4.505363849877613 31.572940149710725 -2.0745952006329613 0 0 0 -1.843135912062854 -21.51550226964078 -9.57410195682906 -44.53390710513843 70.78218463963711 -32.51484993878628 -0.35535529771374214 38.13940177865061 4.943299328655936 0 0 0 -0.5793259163016301 10.91554776816486 -1.2161044805411945 -0.9897209058645963 -8.274695726065108 1.9467103683427969 0 0 0 -1.258478139248243 -1.8573363176732733 -1.111681859560705 -4.9764754745238315 -13.043189078486805 -79.33313089305592 -44.33331875645365 5.901099190586701 -6.078527349426069 6.198995677004886 11.014483559695963 -45.600500457733645 0 0 0 0 0 0 0 0 0 0 0 0 0 0 0 0 0 0 0 0 0 0 0 0 0 0 0 0 0 0 0 0 0 0 0 0 0 0 0 0 0 0 0 0 0 -0.001481120561603625 0.5271874789354486 12.997408094472853 -0.00021596845888405416 -0.5557190403614773 10.999556165130512 0 0 0 0 0 0 0 0 0 14.450701407750477 -2.1651001548002755 -17.231420006988525 6.919972985488695 -22.41033375290079 67.1416285418891 78.3085997352376 -1.3930485627656934 19.077713073299456 7.807781550745042 -18.5647229162879 59.1125814008225 0 0 0 0 0 0 0 0 0 0 0 0 0 0 0 0 0 0 0 0 0 0 0 0 0 0 0 0 0 0 0 0 0 0 0 0 0 0 0 0 0 0 0 0 0
-0.12496102598966756 -10.551019792479126 0.07121225295337003 180 -80.98251657287345 180 4.9146859314338105 -23.794748083646496 5.465645331144901 59.361436585025494 75.93300503843788 47.733288548801625 4.432256397306164 31.30702120250432 -2.2772446481516617 0 0 0 -1.5701651752862213 -22.080498397746606 -9.499928265889954 -44.53390895408612 70.78218463963711 -32.51485212600778 -0.34452088275938186 37.88384785567015 5.308984200083504 0 0 0 -0.5766365445229636 9.41959325922859 -1.2007643102643315 -0.9874565307773545 -7.276064426667889 1.9294421288430084 0 0 0 -0.9326280068844719 -1.4031724229490887 -0.8662640072745911 -4.980477592659734 -12.756102060689601 -79.43692283567674 -45.74660710866476 5.813809100191636 -6.329424717717226 6.647601464322716 11.002459742039388 -45.57872049666265 0 0 0 0 0 0 0 0 0 0 0 0 0 0 0 0 0 0 0 0 0 0 0 0 0 0 0 0 0 0 0 0 0 0 0 0 0 0 0 0 0 0 0 0 0 -0.0015305927515257849 0.527155994699584 13.497228830749878 -0.0003239717484086303 -0.8336140308474952 10.999554999585968 0 0 0 0 0 0 0 0 0 14.02502171032292 -3.053183115093351 -17.954733457912493 6.944015107833773 -22.252888651170455 67.7149152062849 78.64218589348386 -1.5074250397361202 19.415998433404262 7.035226469925061 -18.7692477106584 58.66775519584172 0 0 0 0 0 0 0 0 0 0 0 0 0 0 0 0 0 0 0 0 0 0 0 0 0 0 0 0 0 0 0 0 0 0 0 0 0 0 0 0 0 0 0 0 0
-0.12496102598966756 -10.52056424788494 0.08339457814795286 180 -81.64997466232343 180 4.837442597411649 -24.335846637483492 5.403875772260253 59.361404293042725 75.93300503843788 47.73325806614683 4.360446916185632 31.040870218407477 -2.4789492756293003 0 0 0 -1.2967717505286938 -22.64603019332314 -9.428346394371111 -44.53390710513843 70.78218463963711 -32.51484993878628 -0.3357830372546145 37.62819885979371 5.673410603823746 0 0 0 -0.5743575320198494 7.920555230804807 -1.185524324504386 -0.9854969615376966 -6.276517002838369 1.9122321486711906 0 0 0 -0.6047749512966706 -0.9502589472887815 -0.6182212457738465 -4.985009938277315 -12.468991448767524 -79.5406154527053 -47.16186607516553 5.720212573311295 -6.578495783252245 7.096264784654537 10.990261600221787 -45.55701840664372 0 0 0 0 0 0 0 0 0 0 0 0 0 0 0 0 0 0 0 0 0 0 0 0 0 0 0 0 0 0 0 0 0 0 0 0 0 0 0 0 0 0 0 0 0 -0.0015797276699072885 0.5271253642736583 13.997160976259416 -0.0004319979205135014 -1.111529008052297 10.999555230169474 0 0 0 0 0 0 0 0 0 13.609635234894698 -3.947794965382183 -18.67309714480031 6.969738418988163 -22.09561853522339 68.28781743961706 78.97519817878364 -1.62379355922542 19.753700713309033 6.262670404456835 -18.97964020452376 58.224901654931344 0 0 0 0 0 0 0 0 0 0 0 0 0 0 0 0 0 0 0 0 0 0 0 0 0 0 0 0 0 0 0 0 0 0 0 0 0 0 0 0 0 0 0 0 0
-0.12496102598966756 -10.490108703290753 0.09557690334253569 180 -82.31765314830268 180 4.760488810536225 -24.877152645626232 5.342630734829951 59.361407873291604 75.93300503843788 47.73326042870092 4.289920792779633 30.774479451748395 -2.6797199814882986 0 0 0 -1.02291829860165 -23.212050044159078 -9.359376536387977 -44.53390710513843 70.78218463963711 -32.51484993878628 -0.3291209444874253 37.3724593026521 6.036594266957209 0 0 0 -0.5724839500140143 6.418927871492328 -1.1703687968147378 -0.9838420097989197 -5.276205920561791 1.8950741489598872 0 0 0 -0.27490175907580483 -0.4986469765526586 -0.3675438864179437 -4.990068895514322 -12.181872833892797 -79.64422642029281 -48.57865246890462 5.620368242438087 -6.825503501194237 7.54497316872445 10.977901330960053 -45.53542367561417 0 0 0 0 0 0 0 0 0 0 0 0 0 0 0 0 0 0 0 0 0 0 0 0 0 0 0 0 0 0 0 0 0 0 0 0 0 0 0 0 0 0 0 0 0 -0.0016294819964299979 0.5270949473003271 14.497187880276373 -0.0005400545738963411 -1.3894600547599805 10.999556205445808 0 0 0 0 0 0 0 0 0 13.204568528793155 -4.848567787764001 -19.386630945585573 6.99713200181371 -21.938552930285375 68.86032921488746 79.3076096114924 -1.7421423342961224 20.0908052139137 5.490240383035576 -19.19583498127094 57.78415617991901 0 0 0 0 0 0 0 0 0 0 0 0 0 0 0 0 0 0 0 0 0 0 0 0 0 0 0 0 0 0 0 0 0 0 0 0 0 0 0 0 0 0 0 0 0
-0.12496102598966756 -10.459653158696568 0.1077592285371185 180 -82.98555024980428 180 4.683818253695757 -25.41862292576674 5.281905974355184 59.361407873291604 75.93300503843788 47.73326042870092 4.220667957970987 30.507853089491082 -2.8795700544810283 0 0 0 -0.7485607162253485 -23.77850774485073 -9.29305203459648 -44.53390710513843 70.78218463963711 -32.51484993878628 -0.3245131976119865 37.11668499929519 6.398555423971706 0 0 0 -0.5710128038012751 4.915228515032016 -1.1552810023051752 -0.9824892844493117 -4.275285646267246 1.8779604428044032 0 0 0 0.05700847614074227 -0.04838592294029752 -0.11422051392207584 -4.9956512473810415 -11.894750386501919 -79.7477737842419 -49.99646728876721 5.514343375585416 -7.070209350702033 7.993711537043999 10.96537025752817 -45.51392896551557 0 0 0 0 0 0 0 0 0 0 0 0 0 0 0 0 0 0 0 0 0 0 0 0 0 0 0 0 0 0 0 0 0 0 0 0 0 0 0 0 0 0 0 0 0 -0.0016788712233832509 0.5270653841369161 14.997292131161622 -0.0006481494058098446 -1.667404054685265 10.999556062270157 0 0 0 0 0 0 0 0 0 12.809854559616774 -5.755129690835658 -20.095451879682482 7.026197409226185 -21.78171020615179 69.43240698999713 79.63938090123564 -1.8624605919230983 20.427291154653517 4.718065801051741 -19.41776013404233 57.345655068371904 0 0 0 0 0 0 0 0 0 0 0 0 0 0 0 0 0 0 0 0 0 0 0 0 0 0 0 0 0 0 0 0 0 0 0 0 0 0 0 0 0 0 0 0 0
